<?xml version="1.0" encoding="UTF-8" standalone="no"?>
<!DOCTYPE svg PUBLIC "-//W3C//DTD SVG 1.1//EN"
 "http://www.w3.org/Graphics/SVG/1.1/DTD/svg11.dtd">
<!-- Generated by graphviz version 12.2.0 (20241103.1931)
 -->
<!-- Title: dependency&#45;cruiser output Pages: 1 -->
<svg width="908pt" height="574pt"
 viewBox="0.00 0.00 908.25 574.00" xmlns="http://www.w3.org/2000/svg" xmlns:xlink="http://www.w3.org/1999/xlink">
<g id="graph0" class="graph" transform="scale(1 1) rotate(0) translate(4 570)">
<title>dependency&#45;cruiser output</title>
<polygon fill="white" stroke="none" points="-4,4 -4,-570 904.25,-570 904.25,4 -4,4"/>
<g id="clust1" class="cluster">
<title>cluster_src</title>
<path fill="#ffffff" stroke="black" stroke-width="2" d="M20,-8C20,-8 880.25,-8 880.25,-8 886.25,-8 892.25,-14 892.25,-20 892.25,-20 892.25,-546 892.25,-546 892.25,-552 886.25,-558 880.25,-558 880.25,-558 20,-558 20,-558 14,-558 8,-552 8,-546 8,-546 8,-20 8,-20 8,-14 14,-8 20,-8"/>
<text text-anchor="middle" x="450.12" y="-545.45" font-family="Helvetica,sans-Serif" font-weight="bold" font-size="9.00">src</text>
</g>
<g id="clust2" class="cluster">
<title>cluster_src/Atoms</title>
<path fill="#ffffff" stroke="black" stroke-width="2" d="M544.75,-142C544.75,-142 716,-142 716,-142 722,-142 728,-148 728,-154 728,-154 728,-272 728,-272 728,-278 722,-284 716,-284 716,-284 544.75,-284 544.75,-284 538.75,-284 532.75,-278 532.75,-272 532.75,-272 532.75,-154 532.75,-154 532.75,-148 538.75,-142 544.75,-142"/>
<text text-anchor="middle" x="630.38" y="-271.45" font-family="Helvetica,sans-Serif" font-weight="bold" font-size="9.00">Atoms</text>
</g>
<g id="clust3" class="cluster">
<title>cluster_src/Components</title>
<path fill="#ffffff" stroke="black" stroke-width="2" d="M100.75,-42C100.75,-42 433.75,-42 433.75,-42 439.75,-42 445.75,-48 445.75,-54 445.75,-54 445.75,-520 445.75,-520 445.75,-526 439.75,-532 433.75,-532 433.75,-532 100.75,-532 100.75,-532 94.75,-532 88.75,-526 88.75,-520 88.75,-520 88.75,-54 88.75,-54 88.75,-48 94.75,-42 100.75,-42"/>
<text text-anchor="middle" x="267.25" y="-519.45" font-family="Helvetica,sans-Serif" font-weight="bold" font-size="9.00">Components</text>
</g>
<g id="clust4" class="cluster">
<title>cluster_src/Components/Customer</title>
<path fill="#ffffff" stroke="black" stroke-width="2" d="M279,-60C279,-60 362.75,-60 362.75,-60 368.75,-60 374.75,-66 374.75,-72 374.75,-72 374.75,-130 374.75,-130 374.75,-136 368.75,-142 362.75,-142 362.75,-142 279,-142 279,-142 273,-142 267,-136 267,-130 267,-130 267,-72 267,-72 267,-66 273,-60 279,-60"/>
<text text-anchor="middle" x="320.88" y="-129.45" font-family="Helvetica,sans-Serif" font-weight="bold" font-size="9.00">Customer</text>
</g>
<g id="clust5" class="cluster">
<title>cluster_src/Components/Features</title>
<path fill="#ffffff" stroke="black" stroke-width="2" d="M280.5,-160C280.5,-160 361.25,-160 361.25,-160 367.25,-160 373.25,-166 373.25,-172 373.25,-172 373.25,-290 373.25,-290 373.25,-296 367.25,-302 361.25,-302 361.25,-302 280.5,-302 280.5,-302 274.5,-302 268.5,-296 268.5,-290 268.5,-290 268.5,-172 268.5,-172 268.5,-166 274.5,-160 280.5,-160"/>
<text text-anchor="middle" x="320.88" y="-289.45" font-family="Helvetica,sans-Serif" font-weight="bold" font-size="9.00">Features</text>
</g>
<g id="clust6" class="cluster">
<title>cluster_src/Components/Order</title>
<path fill="#ffffff" stroke="black" stroke-width="2" d="M170.75,-258C170.75,-258 247,-258 247,-258 253,-258 259,-264 259,-270 259,-270 259,-388 259,-388 259,-394 253,-400 247,-400 247,-400 170.75,-400 170.75,-400 164.75,-400 158.75,-394 158.75,-388 158.75,-388 158.75,-270 158.75,-270 158.75,-264 164.75,-258 170.75,-258"/>
<text text-anchor="middle" x="208.88" y="-387.45" font-family="Helvetica,sans-Serif" font-weight="bold" font-size="9.00">Order</text>
</g>
<g id="clust7" class="cluster">
<title>cluster_src/Components/Paper</title>
<path fill="#ffffff" stroke="black" stroke-width="2" d="M283.88,-364C283.88,-364 357.88,-364 357.88,-364 363.88,-364 369.88,-370 369.88,-376 369.88,-376 369.88,-494 369.88,-494 369.88,-500 363.88,-506 357.88,-506 357.88,-506 283.88,-506 283.88,-506 277.88,-506 271.88,-500 271.88,-494 271.88,-494 271.88,-376 271.88,-376 271.88,-370 277.88,-364 283.88,-364"/>
<text text-anchor="middle" x="320.88" y="-493.45" font-family="Helvetica,sans-Serif" font-weight="bold" font-size="9.00">Paper</text>
</g>
<g id="clust8" class="cluster">
<title>cluster_src/Helpers</title>
<path fill="#ffffff" stroke="black" stroke-width="2" d="M650.25,-302C650.25,-302 802.25,-302 802.25,-302 808.25,-302 814.25,-308 814.25,-314 814.25,-314 814.25,-406 814.25,-406 814.25,-412 808.25,-418 802.25,-418 802.25,-418 650.25,-418 650.25,-418 644.25,-418 638.25,-412 638.25,-406 638.25,-406 638.25,-314 638.25,-314 638.25,-308 644.25,-302 650.25,-302"/>
<text text-anchor="middle" x="726.25" y="-405.45" font-family="Helvetica,sans-Serif" font-weight="bold" font-size="9.00">Helpers</text>
</g>
<g id="clust9" class="cluster">
<title>cluster_src/Helpers/Constants</title>
<path fill="#ffffff" stroke="black" stroke-width="2" d="M748,-310C748,-310 794.25,-310 794.25,-310 800.25,-310 806.25,-316 806.25,-322 806.25,-322 806.25,-380 806.25,-380 806.25,-386 800.25,-392 794.25,-392 794.25,-392 748,-392 748,-392 742,-392 736,-386 736,-380 736,-380 736,-322 736,-322 736,-316 742,-310 748,-310"/>
<text text-anchor="middle" x="771.12" y="-379.45" font-family="Helvetica,sans-Serif" font-weight="bold" font-size="9.00">Constants</text>
</g>
<g id="clust10" class="cluster">
<title>cluster_src/Hooks</title>
<path fill="#ffffff" stroke="black" stroke-width="2" d="M465.75,-237C465.75,-237 512.75,-237 512.75,-237 518.75,-237 524.75,-243 524.75,-249 524.75,-249 524.75,-307 524.75,-307 524.75,-313 518.75,-319 512.75,-319 512.75,-319 465.75,-319 465.75,-319 459.75,-319 453.75,-313 453.75,-307 453.75,-307 453.75,-249 453.75,-249 453.75,-243 459.75,-237 465.75,-237"/>
<text text-anchor="middle" x="489.25" y="-306.45" font-family="Helvetica,sans-Serif" font-weight="bold" font-size="9.00">Hooks</text>
</g>
<g id="clust11" class="cluster">
<title>cluster_src/Models</title>
<path fill="#ffffff" stroke="black" stroke-width="2" d="M748.12,-242C748.12,-242 872.25,-242 872.25,-242 878.25,-242 884.25,-248 884.25,-254 884.25,-254 884.25,-282 884.25,-282 884.25,-288 878.25,-294 872.25,-294 872.25,-294 748.12,-294 748.12,-294 742.12,-294 736.12,-288 736.12,-282 736.12,-282 736.12,-254 736.12,-254 736.12,-248 742.12,-242 748.12,-242"/>
<text text-anchor="middle" x="810.19" y="-281.45" font-family="Helvetica,sans-Serif" font-weight="bold" font-size="9.00">Models</text>
</g>
<!-- src/Atoms/BasketAtom.tsx -->
<g id="node1" class="node">
<title>src/Atoms/BasketAtom.tsx</title>
<g id="a_node1"><a xlink:href="src/Atoms/BasketAtom.tsx" xlink:title="BasketAtom.tsx">
<path fill="#bbfeff" stroke="black" d="M706.96,-227.88C706.96,-227.88 640.54,-227.88 640.54,-227.88 637.58,-227.88 634.62,-224.92 634.62,-221.96 634.62,-221.96 634.62,-216.04 634.62,-216.04 634.62,-213.08 637.58,-210.12 640.54,-210.12 640.54,-210.12 706.96,-210.12 706.96,-210.12 709.92,-210.12 712.88,-213.08 712.88,-216.04 712.88,-216.04 712.88,-221.96 712.88,-221.96 712.88,-224.92 709.92,-227.88 706.96,-227.88"/>
<text text-anchor="start" x="642.62" y="-215.32" font-family="Helvetica,sans-Serif" font-size="9.00">BasketAtom.tsx</text>
</a>
</g>
</g>
<!-- src/Atoms/CustomerAtom.tsx -->
<g id="node2" class="node">
<title>src/Atoms/CustomerAtom.tsx</title>
<g id="a_node2"><a xlink:href="src/Atoms/CustomerAtom.tsx" xlink:title="CustomerAtom.tsx">
<path fill="#bbfeff" stroke="black" d="M712.96,-257.88C712.96,-257.88 634.54,-257.88 634.54,-257.88 631.58,-257.88 628.62,-254.92 628.62,-251.96 628.62,-251.96 628.62,-246.04 628.62,-246.04 628.62,-243.08 631.58,-240.12 634.54,-240.12 634.54,-240.12 712.96,-240.12 712.96,-240.12 715.92,-240.12 718.88,-243.08 718.88,-246.04 718.88,-246.04 718.88,-251.96 718.88,-251.96 718.88,-254.92 715.92,-257.88 712.96,-257.88"/>
<text text-anchor="start" x="636.62" y="-245.32" font-family="Helvetica,sans-Serif" font-size="9.00">CustomerAtom.tsx</text>
</a>
</g>
</g>
<!-- src/Atoms/OrderAtom.tsx -->
<g id="node3" class="node">
<title>src/Atoms/OrderAtom.tsx</title>
<g id="a_node3"><a xlink:href="src/Atoms/OrderAtom.tsx" xlink:title="no&#45;orphans">
<path fill="#ccffcc" stroke="orange" d="M608.58,-182.88C608.58,-182.88 546.67,-182.88 546.67,-182.88 543.71,-182.88 540.75,-179.92 540.75,-176.96 540.75,-176.96 540.75,-171.04 540.75,-171.04 540.75,-168.08 543.71,-165.12 546.67,-165.12 546.67,-165.12 608.58,-165.12 608.58,-165.12 611.54,-165.12 614.5,-168.08 614.5,-171.04 614.5,-171.04 614.5,-176.96 614.5,-176.96 614.5,-179.92 611.54,-182.88 608.58,-182.88"/>
<text text-anchor="start" x="548.75" y="-170.32" font-family="Helvetica,sans-Serif" font-size="9.00" fill="orange">OrderAtom.tsx</text>
</a>
</g>
</g>
<!-- src/Atoms/PaperAtom.tsx -->
<g id="node4" class="node">
<title>src/Atoms/PaperAtom.tsx</title>
<g id="a_node4"><a xlink:href="src/Atoms/PaperAtom.tsx" xlink:title="PaperAtom.tsx">
<path fill="#bbfeff" stroke="black" d="M705.46,-167.88C705.46,-167.88 642.04,-167.88 642.04,-167.88 639.08,-167.88 636.12,-164.92 636.12,-161.96 636.12,-161.96 636.12,-156.04 636.12,-156.04 636.12,-153.08 639.08,-150.12 642.04,-150.12 642.04,-150.12 705.46,-150.12 705.46,-150.12 708.42,-150.12 711.38,-153.08 711.38,-156.04 711.38,-156.04 711.38,-161.96 711.38,-161.96 711.38,-164.92 708.42,-167.88 705.46,-167.88"/>
<text text-anchor="start" x="644.12" y="-155.32" font-family="Helvetica,sans-Serif" font-size="9.00">PaperAtom.tsx</text>
</a>
</g>
</g>
<!-- src/Atoms/PropertiesAtom.tsx -->
<g id="node5" class="node">
<title>src/Atoms/PropertiesAtom.tsx</title>
<g id="a_node5"><a xlink:href="src/Atoms/PropertiesAtom.tsx" xlink:title="PropertiesAtom.tsx">
<path fill="#bbfeff" stroke="black" d="M714.08,-197.88C714.08,-197.88 633.42,-197.88 633.42,-197.88 630.46,-197.88 627.5,-194.92 627.5,-191.96 627.5,-191.96 627.5,-186.04 627.5,-186.04 627.5,-183.08 630.46,-180.12 633.42,-180.12 633.42,-180.12 714.08,-180.12 714.08,-180.12 717.04,-180.12 720,-183.08 720,-186.04 720,-186.04 720,-191.96 720,-191.96 720,-194.92 717.04,-197.88 714.08,-197.88"/>
<text text-anchor="start" x="635.5" y="-185.32" font-family="Helvetica,sans-Serif" font-size="9.00">PropertiesAtom.tsx</text>
</a>
</g>
</g>
<!-- src/Atoms/imports.ts -->
<g id="node6" class="node">
<title>src/Atoms/imports.ts</title>
<g id="a_node6"><a xlink:href="src/Atoms/imports.ts" xlink:title="imports.ts">
<path fill="#ddfeff" stroke="black" d="M599.21,-257.88C599.21,-257.88 556.04,-257.88 556.04,-257.88 553.08,-257.88 550.12,-254.92 550.12,-251.96 550.12,-251.96 550.12,-246.04 550.12,-246.04 550.12,-243.08 553.08,-240.12 556.04,-240.12 556.04,-240.12 599.21,-240.12 599.21,-240.12 602.17,-240.12 605.12,-243.08 605.12,-246.04 605.12,-246.04 605.12,-251.96 605.12,-251.96 605.12,-254.92 602.17,-257.88 599.21,-257.88"/>
<text text-anchor="start" x="558.12" y="-245.32" font-family="Helvetica,sans-Serif" font-size="9.00">imports.ts</text>
</a>
</g>
</g>
<!-- src/Helpers/index.ts -->
<g id="node7" class="node">
<title>src/Helpers/index.ts</title>
<g id="a_node7"><a xlink:href="src/Helpers/index.ts" xlink:title="index.ts">
<path fill="#ddfeff" stroke="black" d="M694.83,-357.88C694.83,-357.88 652.67,-357.88 652.67,-357.88 649.71,-357.88 646.75,-354.92 646.75,-351.96 646.75,-351.96 646.75,-346.04 646.75,-346.04 646.75,-343.08 649.71,-340.12 652.67,-340.12 652.67,-340.12 694.83,-340.12 694.83,-340.12 697.79,-340.12 700.75,-343.08 700.75,-346.04 700.75,-346.04 700.75,-351.96 700.75,-351.96 700.75,-354.92 697.79,-357.88 694.83,-357.88"/>
<text text-anchor="start" x="658" y="-345.32" font-family="Helvetica,sans-Serif" font-size="9.00">index.ts</text>
</a>
</g>
</g>
<!-- src/Atoms/imports.ts&#45;&gt;src/Helpers/index.ts -->
<g id="edge1" class="edge">
<title>src/Atoms/imports.ts&#45;&gt;src/Helpers/index.ts</title>
<path fill="none" stroke="#000000" stroke-width="2" stroke-opacity="0.200000" d="M584.07,-258.04C591.19,-269.89 603.99,-291.38 614.5,-310 620.46,-320.56 618.2,-326.21 627.5,-334 631.17,-337.07 635.48,-339.52 639.97,-341.47"/>
<polygon fill="#000000" fill-opacity="0.200000" stroke="#000000" stroke-width="2" stroke-opacity="0.200000" points="644.93,-345.6 640.06,-341.51 646.42,-341.67 644.93,-345.6"/>
</g>
<!-- src/Models/index.ts -->
<g id="node8" class="node">
<title>src/Models/index.ts</title>
<g id="a_node8"><a xlink:href="src/Models/index.ts" xlink:title="index.ts">
<path fill="#ddfeff" stroke="black" d="M792.21,-267.88C792.21,-267.88 750.04,-267.88 750.04,-267.88 747.08,-267.88 744.12,-264.92 744.12,-261.96 744.12,-261.96 744.12,-256.04 744.12,-256.04 744.12,-253.08 747.08,-250.12 750.04,-250.12 750.04,-250.12 792.21,-250.12 792.21,-250.12 795.17,-250.12 798.12,-253.08 798.12,-256.04 798.12,-256.04 798.12,-261.96 798.12,-261.96 798.12,-264.92 795.17,-267.88 792.21,-267.88"/>
<text text-anchor="start" x="755.38" y="-255.32" font-family="Helvetica,sans-Serif" font-size="9.00">index.ts</text>
</a>
</g>
</g>
<!-- src/Atoms/imports.ts&#45;&gt;src/Models/index.ts -->
<g id="edge2" class="edge">
<title>src/Atoms/imports.ts&#45;&gt;src/Models/index.ts</title>
<path fill="none" stroke="#000000" stroke-width="2" stroke-opacity="0.200000" d="M603.91,-258.33C611.4,-260.66 619.69,-262.83 627.5,-264 664.54,-269.56 707.58,-266.81 736.61,-263.62"/>
<polygon fill="#000000" fill-opacity="0.200000" stroke="#000000" stroke-width="2" stroke-opacity="0.200000" points="742.92,-265.01 736.72,-263.61 742.44,-260.84 742.92,-265.01"/>
</g>
<!-- src/Helpers/Constants/Routes.ts -->
<g id="node32" class="node">
<title>src/Helpers/Constants/Routes.ts</title>
<g id="a_node32"><a xlink:href="src/Helpers/Constants/Routes.ts" xlink:title="Routes.ts">
<path fill="#ddfeff" stroke="black" d="M792.33,-365.88C792.33,-365.88 749.92,-365.88 749.92,-365.88 746.96,-365.88 744,-362.92 744,-359.96 744,-359.96 744,-354.04 744,-354.04 744,-351.08 746.96,-348.12 749.92,-348.12 749.92,-348.12 792.33,-348.12 792.33,-348.12 795.29,-348.12 798.25,-351.08 798.25,-354.04 798.25,-354.04 798.25,-359.96 798.25,-359.96 798.25,-362.92 795.29,-365.88 792.33,-365.88"/>
<text text-anchor="start" x="752" y="-353.32" font-family="Helvetica,sans-Serif" font-size="9.00">Routes.ts</text>
</a>
</g>
</g>
<!-- src/Helpers/index.ts&#45;&gt;src/Helpers/Constants/Routes.ts -->
<g id="edge40" class="edge">
<title>src/Helpers/index.ts&#45;&gt;src/Helpers/Constants/Routes.ts</title>
<path fill="none" stroke="#000000" stroke-width="2" stroke-opacity="0.200000" d="M701.06,-351.21C712.02,-352.13 724.88,-353.2 736.51,-354.18"/>
<polygon fill="#000000" fill-opacity="0.200000" stroke="#000000" stroke-width="2" stroke-opacity="0.200000" points="742.39,-356.78 736.59,-354.19 742.74,-352.6 742.39,-356.78"/>
</g>
<!-- src/Models/Api.ts -->
<g id="node35" class="node">
<title>src/Models/Api.ts</title>
<g id="a_node35"><a xlink:href="src/Models/Api.ts" xlink:title="Api.ts">
<path fill="#ddfeff" stroke="black" d="M870.33,-267.88C870.33,-267.88 828.17,-267.88 828.17,-267.88 825.21,-267.88 822.25,-264.92 822.25,-261.96 822.25,-261.96 822.25,-256.04 822.25,-256.04 822.25,-253.08 825.21,-250.12 828.17,-250.12 828.17,-250.12 870.33,-250.12 870.33,-250.12 873.29,-250.12 876.25,-253.08 876.25,-256.04 876.25,-256.04 876.25,-261.96 876.25,-261.96 876.25,-264.92 873.29,-267.88 870.33,-267.88"/>
<text text-anchor="start" x="838" y="-255.32" font-family="Helvetica,sans-Serif" font-size="9.00">Api.ts</text>
</a>
</g>
</g>
<!-- src/Models/index.ts&#45;&gt;src/Models/Api.ts -->
<g id="edge44" class="edge">
<title>src/Models/index.ts&#45;&gt;src/Models/Api.ts</title>
<path fill="none" stroke="#000000" stroke-width="2" stroke-opacity="0.200000" d="M798.32,-259C803.71,-259 809.44,-259 815.03,-259"/>
<polygon fill="#000000" fill-opacity="0.200000" stroke="#000000" stroke-width="2" stroke-opacity="0.200000" points="821,-261.1 815,-259 821,-256.9 821,-261.1"/>
</g>
<!-- src/Atoms/index.ts -->
<g id="node9" class="node">
<title>src/Atoms/index.ts</title>
<g id="a_node9"><a xlink:href="src/Atoms/index.ts" xlink:title="index.ts">
<path fill="#ddfeff" stroke="black" d="M598.71,-227.88C598.71,-227.88 556.54,-227.88 556.54,-227.88 553.58,-227.88 550.62,-224.92 550.62,-221.96 550.62,-221.96 550.62,-216.04 550.62,-216.04 550.62,-213.08 553.58,-210.12 556.54,-210.12 556.54,-210.12 598.71,-210.12 598.71,-210.12 601.67,-210.12 604.62,-213.08 604.62,-216.04 604.62,-216.04 604.62,-221.96 604.62,-221.96 604.62,-224.92 601.67,-227.88 598.71,-227.88"/>
<text text-anchor="start" x="561.88" y="-215.32" font-family="Helvetica,sans-Serif" font-size="9.00">index.ts</text>
</a>
</g>
</g>
<!-- src/Atoms/index.ts&#45;&gt;src/Atoms/BasketAtom.tsx -->
<g id="edge3" class="edge">
<title>src/Atoms/index.ts&#45;&gt;src/Atoms/BasketAtom.tsx</title>
<path fill="none" stroke="#000000" stroke-width="2" stroke-opacity="0.200000" d="M605.09,-219C612.01,-219 619.65,-219 627.25,-219"/>
<polygon fill="#000000" fill-opacity="0.200000" stroke="#000000" stroke-width="2" stroke-opacity="0.200000" points="633.18,-221.1 627.18,-219 633.18,-216.9 633.18,-221.1"/>
</g>
<!-- src/Atoms/index.ts&#45;&gt;src/Atoms/CustomerAtom.tsx -->
<g id="edge4" class="edge">
<title>src/Atoms/index.ts&#45;&gt;src/Atoms/CustomerAtom.tsx</title>
<path fill="none" stroke="#000000" stroke-width="2" stroke-opacity="0.200000" d="M605.09,-227.44C614.91,-230.56 626.21,-234.17 636.73,-237.52"/>
<polygon fill="#000000" fill-opacity="0.200000" stroke="#000000" stroke-width="2" stroke-opacity="0.200000" points="641.92,-241.38 636.84,-237.55 643.19,-237.37 641.92,-241.38"/>
</g>
<!-- src/Atoms/index.ts&#45;&gt;src/Atoms/PaperAtom.tsx -->
<g id="edge5" class="edge">
<title>src/Atoms/index.ts&#45;&gt;src/Atoms/PaperAtom.tsx</title>
<path fill="none" stroke="#000000" stroke-width="2" stroke-opacity="0.200000" d="M590.67,-209.73C597.84,-204.02 606.97,-196.4 614.5,-189 620.79,-182.82 620.16,-178.9 627.5,-174 628.95,-173.04 630.46,-172.13 632.02,-171.28"/>
<polygon fill="#000000" fill-opacity="0.200000" stroke="#000000" stroke-width="2" stroke-opacity="0.200000" points="638.24,-170.57 631.93,-171.32 636.4,-166.8 638.24,-170.57"/>
</g>
<!-- src/Atoms/index.ts&#45;&gt;src/Atoms/PropertiesAtom.tsx -->
<g id="edge6" class="edge">
<title>src/Atoms/index.ts&#45;&gt;src/Atoms/PropertiesAtom.tsx</title>
<path fill="none" stroke="#000000" stroke-width="2" stroke-opacity="0.200000" d="M605.09,-210.56C614.91,-207.44 626.21,-203.83 636.73,-200.48"/>
<polygon fill="#000000" fill-opacity="0.200000" stroke="#000000" stroke-width="2" stroke-opacity="0.200000" points="643.19,-200.63 636.84,-200.45 641.92,-196.62 643.19,-200.63"/>
</g>
<!-- src/Components/AdminPage.tsx -->
<g id="node10" class="node">
<title>src/Components/AdminPage.tsx</title>
<g id="a_node10"><a xlink:href="src/Components/AdminPage.tsx" xlink:title="AdminPage.tsx">
<path fill="#bbfeff" stroke="black" d="M241.71,-172.88C241.71,-172.88 176.04,-172.88 176.04,-172.88 173.08,-172.88 170.12,-169.92 170.12,-166.96 170.12,-166.96 170.12,-161.04 170.12,-161.04 170.12,-158.08 173.08,-155.12 176.04,-155.12 176.04,-155.12 241.71,-155.12 241.71,-155.12 244.67,-155.12 247.62,-158.08 247.62,-161.04 247.62,-161.04 247.62,-166.96 247.62,-166.96 247.62,-169.92 244.67,-172.88 241.71,-172.88"/>
<text text-anchor="start" x="178.12" y="-160.32" font-family="Helvetica,sans-Serif" font-size="9.00">AdminPage.tsx</text>
</a>
</g>
</g>
<!-- src/index.css -->
<g id="node11" class="node">
<title>src/index.css</title>
<g id="a_node11"><a xlink:href="src/index.css" xlink:title="index.css">
<path fill="#ffffcc" stroke="black" d="M342.08,-33.88C342.08,-33.88 299.67,-33.88 299.67,-33.88 296.71,-33.88 293.75,-30.92 293.75,-27.96 293.75,-27.96 293.75,-22.04 293.75,-22.04 293.75,-19.08 296.71,-16.12 299.67,-16.12 299.67,-16.12 342.08,-16.12 342.08,-16.12 345.04,-16.12 348,-19.08 348,-22.04 348,-22.04 348,-27.96 348,-27.96 348,-30.92 345.04,-33.88 342.08,-33.88"/>
<text text-anchor="start" x="301.75" y="-21.32" font-family="Helvetica,sans-Serif" font-size="9.00">index.css</text>
</a>
</g>
</g>
<!-- src/Components/AdminPage.tsx&#45;&gt;src/index.css -->
<g id="edge7" class="edge">
<title>src/Components/AdminPage.tsx&#45;&gt;src/index.css</title>
<path fill="none" stroke="#000000" stroke-width="2" stroke-opacity="0.200000" d="M215.23,-154.64C224.46,-138.39 243.85,-103.84 259,-74 262.78,-66.55 261.41,-63.2 267,-57 273.58,-49.69 282.24,-43.51 290.63,-38.59"/>
<polygon fill="#000000" fill-opacity="0.200000" stroke="#000000" stroke-width="2" stroke-opacity="0.200000" points="291.61,-40.44 295.87,-35.72 289.6,-36.76 291.61,-40.44"/>
</g>
<!-- src/Components/Customer/CustomerTable.tsx -->
<g id="node12" class="node">
<title>src/Components/Customer/CustomerTable.tsx</title>
<g id="a_node12"><a xlink:href="src/Components/Customer/CustomerTable.tsx" xlink:title="CustomerTable.tsx">
<path fill="#bbfeff" stroke="black" d="M360.83,-115.88C360.83,-115.88 280.92,-115.88 280.92,-115.88 277.96,-115.88 275,-112.92 275,-109.96 275,-109.96 275,-104.04 275,-104.04 275,-101.08 277.96,-98.12 280.92,-98.12 280.92,-98.12 360.83,-98.12 360.83,-98.12 363.79,-98.12 366.75,-101.08 366.75,-104.04 366.75,-104.04 366.75,-109.96 366.75,-109.96 366.75,-112.92 363.79,-115.88 360.83,-115.88"/>
<text text-anchor="start" x="283" y="-103.33" font-family="Helvetica,sans-Serif" font-size="9.00">CustomerTable.tsx</text>
</a>
</g>
</g>
<!-- src/Components/AdminPage.tsx&#45;&gt;src/Components/Customer/CustomerTable.tsx -->
<g id="edge8" class="edge">
<title>src/Components/AdminPage.tsx&#45;&gt;src/Components/Customer/CustomerTable.tsx</title>
<path fill="none" stroke="#000000" stroke-width="2" stroke-opacity="0.200000" d="M219.15,-154.85C229.82,-144.84 248.28,-129.01 267,-120 267.18,-119.92 267.35,-119.83 267.53,-119.75"/>
<polygon fill="#000000" fill-opacity="0.200000" stroke="#000000" stroke-width="2" stroke-opacity="0.200000" points="268.27,-121.72 273.01,-117.48 266.66,-117.83 268.27,-121.72"/>
</g>
<!-- src/Components/Features/FeatureTable.tsx -->
<g id="node13" class="node">
<title>src/Components/Features/FeatureTable.tsx</title>
<g id="a_node13"><a xlink:href="src/Components/Features/FeatureTable.tsx" xlink:title="FeatureTable.tsx">
<path fill="#bbfeff" stroke="black" d="M356.71,-185.88C356.71,-185.88 285.04,-185.88 285.04,-185.88 282.08,-185.88 279.12,-182.92 279.12,-179.96 279.12,-179.96 279.12,-174.04 279.12,-174.04 279.12,-171.08 282.08,-168.12 285.04,-168.12 285.04,-168.12 356.71,-168.12 356.71,-168.12 359.67,-168.12 362.62,-171.08 362.62,-174.04 362.62,-174.04 362.62,-179.96 362.62,-179.96 362.62,-182.92 359.67,-185.88 356.71,-185.88"/>
<text text-anchor="start" x="287.12" y="-173.32" font-family="Helvetica,sans-Serif" font-size="9.00">FeatureTable.tsx</text>
</a>
</g>
</g>
<!-- src/Components/AdminPage.tsx&#45;&gt;src/Components/Features/FeatureTable.tsx -->
<g id="edge9" class="edge">
<title>src/Components/AdminPage.tsx&#45;&gt;src/Components/Features/FeatureTable.tsx</title>
<path fill="none" stroke="#000000" stroke-width="2" stroke-opacity="0.200000" d="M248.04,-168.51C255.17,-169.35 262.73,-170.25 270.15,-171.12"/>
<polygon fill="#000000" fill-opacity="0.200000" stroke="#000000" stroke-width="2" stroke-opacity="0.200000" points="269.57,-173.17 275.77,-171.79 270.06,-169 269.57,-173.17"/>
</g>
<!-- src/Components/imports.ts -->
<g id="node14" class="node">
<title>src/Components/imports.ts</title>
<g id="a_node14"><a xlink:href="src/Components/imports.ts" xlink:title="imports.ts">
<path fill="#ddfeff" stroke="black" d="M431.83,-245.88C431.83,-245.88 388.67,-245.88 388.67,-245.88 385.71,-245.88 382.75,-242.92 382.75,-239.96 382.75,-239.96 382.75,-234.04 382.75,-234.04 382.75,-231.08 385.71,-228.12 388.67,-228.12 388.67,-228.12 431.83,-228.12 431.83,-228.12 434.79,-228.12 437.75,-231.08 437.75,-234.04 437.75,-234.04 437.75,-239.96 437.75,-239.96 437.75,-242.92 434.79,-245.88 431.83,-245.88"/>
<text text-anchor="start" x="390.75" y="-233.32" font-family="Helvetica,sans-Serif" font-size="9.00">imports.ts</text>
</a>
</g>
</g>
<!-- src/Components/AdminPage.tsx&#45;&gt;src/Components/imports.ts -->
<g id="edge10" class="edge">
<title>src/Components/AdminPage.tsx&#45;&gt;src/Components/imports.ts</title>
<path fill="none" stroke="#000000" stroke-width="2" stroke-opacity="0.200000" d="M247.8,-157.4C289.92,-150.92 354.64,-143.77 374.75,-157 395.52,-170.66 403.84,-199.75 407.14,-218.83"/>
<polygon fill="#000000" fill-opacity="0.200000" stroke="#000000" stroke-width="2" stroke-opacity="0.200000" points="405.06,-219.14 408,-224.77 409.21,-218.53 405.06,-219.14"/>
</g>
<!-- src/Components/Paper/PaperTable.tsx -->
<g id="node15" class="node">
<title>src/Components/Paper/PaperTable.tsx</title>
<g id="a_node15"><a xlink:href="src/Components/Paper/PaperTable.tsx" xlink:title="PaperTable.tsx">
<path fill="#bbfeff" stroke="black" d="M353.33,-389.88C353.33,-389.88 288.42,-389.88 288.42,-389.88 285.46,-389.88 282.5,-386.92 282.5,-383.96 282.5,-383.96 282.5,-378.04 282.5,-378.04 282.5,-375.08 285.46,-372.12 288.42,-372.12 288.42,-372.12 353.33,-372.12 353.33,-372.12 356.29,-372.12 359.25,-375.08 359.25,-378.04 359.25,-378.04 359.25,-383.96 359.25,-383.96 359.25,-386.92 356.29,-389.88 353.33,-389.88"/>
<text text-anchor="start" x="290.5" y="-377.32" font-family="Helvetica,sans-Serif" font-size="9.00">PaperTable.tsx</text>
</a>
</g>
</g>
<!-- src/Components/AdminPage.tsx&#45;&gt;src/Components/Paper/PaperTable.tsx -->
<g id="edge11" class="edge">
<title>src/Components/AdminPage.tsx&#45;&gt;src/Components/Paper/PaperTable.tsx</title>
<path fill="none" stroke="#000000" stroke-width="2" stroke-opacity="0.200000" d="M216.62,-173.24C227.74,-189.06 249.63,-222.76 259,-255 266.03,-279.17 250.78,-348.75 267,-368 269.1,-370.5 271.6,-372.56 274.35,-374.25"/>
<polygon fill="#000000" fill-opacity="0.200000" stroke="#000000" stroke-width="2" stroke-opacity="0.200000" points="273.05,-375.96 279.37,-376.64 274.85,-372.17 273.05,-375.96"/>
</g>
<!-- src/Components/Customer/CustomerTable.tsx&#45;&gt;src/Components/imports.ts -->
<g id="edge25" class="edge">
<title>src/Components/Customer/CustomerTable.tsx&#45;&gt;src/Components/imports.ts</title>
<path fill="none" stroke="#000000" stroke-width="2" stroke-opacity="0.200000" d="M367.21,-114.5C369.94,-116.03 372.49,-117.85 374.75,-120 402.31,-146.33 408.17,-193.48 409.22,-219.15"/>
<polygon fill="#000000" fill-opacity="0.200000" stroke="#000000" stroke-width="2" stroke-opacity="0.200000" points="407.11,-218.87 409.35,-224.82 411.31,-218.78 407.11,-218.87"/>
</g>
<!-- src/Components/Features/FeatureTable.tsx&#45;&gt;src/Components/imports.ts -->
<g id="edge28" class="edge">
<title>src/Components/Features/FeatureTable.tsx&#45;&gt;src/Components/imports.ts</title>
<path fill="none" stroke="#000000" stroke-width="2" stroke-opacity="0.200000" d="M362.91,-185.74C367.09,-187.47 371.12,-189.53 374.75,-192 385.21,-199.1 393.85,-210.4 399.87,-219.9"/>
<polygon fill="#000000" fill-opacity="0.200000" stroke="#000000" stroke-width="2" stroke-opacity="0.200000" points="398.05,-220.94 402.92,-225.03 401.66,-218.8 398.05,-220.94"/>
</g>
<!-- src/Components/imports.ts&#45;&gt;src/Helpers/index.ts -->
<g id="edge36" class="edge">
<title>src/Components/imports.ts&#45;&gt;src/Helpers/index.ts</title>
<path fill="none" stroke="#000000" stroke-width="2" stroke-opacity="0.200000" d="M412.92,-246.29C416.68,-264.24 427.61,-303.54 453.75,-322 509.29,-361.23 593.1,-359.04 639.27,-354.01"/>
<polygon fill="#000000" fill-opacity="0.200000" stroke="#000000" stroke-width="2" stroke-opacity="0.200000" points="645.6,-355.38 639.4,-353.99 645.11,-351.21 645.6,-355.38"/>
</g>
<!-- src/Components/imports.ts&#45;&gt;src/Models/index.ts -->
<g id="edge38" class="edge">
<title>src/Components/imports.ts&#45;&gt;src/Models/index.ts</title>
<path fill="none" stroke="#000000" stroke-width="2" stroke-opacity="0.200000" d="M418.55,-227.88C435.78,-207.21 481.39,-157.13 532.75,-139 614.58,-110.11 657.2,-88.82 728,-139 761.61,-162.82 768.6,-215.66 769.93,-242.57"/>
<polygon fill="#000000" fill-opacity="0.200000" stroke="#000000" stroke-width="2" stroke-opacity="0.200000" points="768.04,-248.8 769.93,-242.73 772.24,-248.65 768.04,-248.8"/>
</g>
<!-- src/Components/imports.ts&#45;&gt;src/Atoms/index.ts -->
<g id="edge35" class="edge">
<title>src/Components/imports.ts&#45;&gt;src/Atoms/index.ts</title>
<path fill="none" stroke="#000000" stroke-width="2" stroke-opacity="0.200000" d="M438.19,-234.07C466.95,-230.94 512.55,-225.97 543.49,-222.61"/>
<polygon fill="#000000" fill-opacity="0.200000" stroke="#000000" stroke-width="2" stroke-opacity="0.200000" points="549.48,-224.07 543.29,-222.63 549.02,-219.89 549.48,-224.07"/>
</g>
<!-- src/Hooks/index.ts -->
<g id="node30" class="node">
<title>src/Hooks/index.ts</title>
<g id="a_node30"><a xlink:href="src/Hooks/index.ts" xlink:title="index.ts">
<path fill="#ddfeff" stroke="black" d="M510.33,-262.88C510.33,-262.88 468.17,-262.88 468.17,-262.88 465.21,-262.88 462.25,-259.92 462.25,-256.96 462.25,-256.96 462.25,-251.04 462.25,-251.04 462.25,-248.08 465.21,-245.12 468.17,-245.12 468.17,-245.12 510.33,-245.12 510.33,-245.12 513.29,-245.12 516.25,-248.08 516.25,-251.04 516.25,-251.04 516.25,-256.96 516.25,-256.96 516.25,-259.92 513.29,-262.88 510.33,-262.88"/>
<text text-anchor="start" x="473.5" y="-250.32" font-family="Helvetica,sans-Serif" font-size="9.00">index.ts</text>
</a>
</g>
</g>
<!-- src/Components/imports.ts&#45;&gt;src/Hooks/index.ts -->
<g id="edge37" class="edge">
<title>src/Components/imports.ts&#45;&gt;src/Hooks/index.ts</title>
<path fill="none" stroke="#000000" stroke-width="2" stroke-opacity="0.200000" d="M438.18,-242.95C443.61,-244.14 449.37,-245.42 454.99,-246.66"/>
<polygon fill="#000000" fill-opacity="0.200000" stroke="#000000" stroke-width="2" stroke-opacity="0.200000" points="460.55,-250.04 455.15,-246.69 461.46,-245.93 460.55,-250.04"/>
</g>
<!-- src/Components/Paper/PaperTable.tsx&#45;&gt;src/Components/imports.ts -->
<g id="edge34" class="edge">
<title>src/Components/Paper/PaperTable.tsx&#45;&gt;src/Components/imports.ts</title>
<path fill="none" stroke="#000000" stroke-width="2" stroke-opacity="0.200000" d="M359.75,-377C365.32,-374.99 370.57,-372.11 374.75,-368 405.65,-337.61 409.94,-283.09 409.92,-254.93"/>
<polygon fill="#000000" fill-opacity="0.200000" stroke="#000000" stroke-width="2" stroke-opacity="0.200000" points="412.02,-255.14 409.82,-249.18 407.82,-255.21 412.02,-255.14"/>
</g>
<!-- src/Components/App.tsx -->
<g id="node16" class="node">
<title>src/Components/App.tsx</title>
<g id="a_node16"><a xlink:href="src/Components/App.tsx" xlink:title="App.tsx">
<path fill="#bbfeff" stroke="black" d="M144.83,-226.88C144.83,-226.88 102.67,-226.88 102.67,-226.88 99.71,-226.88 96.75,-223.92 96.75,-220.96 96.75,-220.96 96.75,-215.04 96.75,-215.04 96.75,-212.08 99.71,-209.12 102.67,-209.12 102.67,-209.12 144.83,-209.12 144.83,-209.12 147.79,-209.12 150.75,-212.08 150.75,-215.04 150.75,-215.04 150.75,-220.96 150.75,-220.96 150.75,-223.92 147.79,-226.88 144.83,-226.88"/>
<text text-anchor="start" x="108.75" y="-214.32" font-family="Helvetica,sans-Serif" font-size="9.00">App.tsx</text>
</a>
</g>
</g>
<!-- src/Components/App.tsx&#45;&gt;src/Components/AdminPage.tsx -->
<g id="edge12" class="edge">
<title>src/Components/App.tsx&#45;&gt;src/Components/AdminPage.tsx</title>
<path fill="none" stroke="#000000" stroke-width="2" stroke-opacity="0.200000" d="M144.24,-208.68C146.47,-207.49 148.68,-206.25 150.75,-205 164.17,-196.9 178.49,-186.61 189.44,-178.37"/>
<polygon fill="#000000" fill-opacity="0.200000" stroke="#000000" stroke-width="2" stroke-opacity="0.200000" points="190.52,-180.19 194.02,-174.88 187.98,-176.85 190.52,-180.19"/>
</g>
<!-- src/Components/App.tsx&#45;&gt;src/Components/imports.ts -->
<g id="edge18" class="edge">
<title>src/Components/App.tsx&#45;&gt;src/Components/imports.ts</title>
<path fill="none" stroke="#000000" stroke-width="2" stroke-opacity="0.200000" d="M147.58,-208.65C148.78,-207.56 149.86,-206.34 150.75,-205 165.43,-182.93 140.5,-105.22 158.75,-86 174.2,-69.73 240.81,-87.13 259,-74 265.77,-69.11 259.95,-61.47 267,-57 287.22,-44.17 356.29,-41.75 374.75,-57 399.5,-77.46 406.67,-177.53 408.59,-218.97"/>
<polygon fill="#000000" fill-opacity="0.200000" stroke="#000000" stroke-width="2" stroke-opacity="0.200000" points="406.48,-218.81 408.84,-224.72 410.68,-218.63 406.48,-218.81"/>
</g>
<!-- src/Components/ContactPage.tsx -->
<g id="node17" class="node">
<title>src/Components/ContactPage.tsx</title>
<g id="a_node17"><a xlink:href="src/Components/ContactPage.tsx" xlink:title="ContactPage.tsx">
<path fill="#bbfeff" stroke="black" d="M244.33,-67.88C244.33,-67.88 173.42,-67.88 173.42,-67.88 170.46,-67.88 167.5,-64.92 167.5,-61.96 167.5,-61.96 167.5,-56.04 167.5,-56.04 167.5,-53.08 170.46,-50.12 173.42,-50.12 173.42,-50.12 244.33,-50.12 244.33,-50.12 247.29,-50.12 250.25,-53.08 250.25,-56.04 250.25,-56.04 250.25,-61.96 250.25,-61.96 250.25,-64.92 247.29,-67.88 244.33,-67.88"/>
<text text-anchor="start" x="175.5" y="-55.33" font-family="Helvetica,sans-Serif" font-size="9.00">ContactPage.tsx</text>
</a>
</g>
</g>
<!-- src/Components/App.tsx&#45;&gt;src/Components/ContactPage.tsx -->
<g id="edge13" class="edge">
<title>src/Components/App.tsx&#45;&gt;src/Components/ContactPage.tsx</title>
<path fill="none" stroke="#000000" stroke-width="2" stroke-opacity="0.200000" d="M147.59,-208.65C148.78,-207.56 149.86,-206.35 150.75,-205 166.48,-181.24 141.71,-99.84 158.75,-77 159.68,-75.75 160.71,-74.58 161.82,-73.5"/>
<polygon fill="#000000" fill-opacity="0.200000" stroke="#000000" stroke-width="2" stroke-opacity="0.200000" points="162.98,-75.26 166.5,-69.96 160.45,-71.91 162.98,-75.26"/>
</g>
<!-- src/Components/Customer/CustomerList.tsx -->
<g id="node18" class="node">
<title>src/Components/Customer/CustomerList.tsx</title>
<g id="a_node18"><a xlink:href="src/Components/Customer/CustomerList.tsx" xlink:title="CustomerList.tsx">
<path fill="#bbfeff" stroke="black" d="M356.71,-85.88C356.71,-85.88 285.04,-85.88 285.04,-85.88 282.08,-85.88 279.12,-82.92 279.12,-79.96 279.12,-79.96 279.12,-74.04 279.12,-74.04 279.12,-71.08 282.08,-68.12 285.04,-68.12 285.04,-68.12 356.71,-68.12 356.71,-68.12 359.67,-68.12 362.62,-71.08 362.62,-74.04 362.62,-74.04 362.62,-79.96 362.62,-79.96 362.62,-82.92 359.67,-85.88 356.71,-85.88"/>
<text text-anchor="start" x="287.12" y="-73.33" font-family="Helvetica,sans-Serif" font-size="9.00">CustomerList.tsx</text>
</a>
</g>
</g>
<!-- src/Components/App.tsx&#45;&gt;src/Components/Customer/CustomerList.tsx -->
<g id="edge14" class="edge">
<title>src/Components/App.tsx&#45;&gt;src/Components/Customer/CustomerList.tsx</title>
<path fill="none" stroke="#000000" stroke-width="2" stroke-opacity="0.200000" d="M147,-208.96C148.41,-207.79 149.69,-206.47 150.75,-205 165.45,-184.6 144.26,-169.55 158.75,-149 184.41,-112.6 232.87,-94.32 269.97,-85.33"/>
<polygon fill="#000000" fill-opacity="0.200000" stroke="#000000" stroke-width="2" stroke-opacity="0.200000" points="270.33,-87.4 275.71,-84.01 269.39,-83.3 270.33,-87.4"/>
</g>
<!-- src/Components/Features/AddFeature.tsx -->
<g id="node19" class="node">
<title>src/Components/Features/AddFeature.tsx</title>
<g id="a_node19"><a xlink:href="src/Components/Features/AddFeature.tsx" xlink:title="AddFeature.tsx">
<path fill="#bbfeff" stroke="black" d="M353.71,-215.88C353.71,-215.88 288.04,-215.88 288.04,-215.88 285.08,-215.88 282.12,-212.92 282.12,-209.96 282.12,-209.96 282.12,-204.04 282.12,-204.04 282.12,-201.08 285.08,-198.12 288.04,-198.12 288.04,-198.12 353.71,-198.12 353.71,-198.12 356.67,-198.12 359.62,-201.08 359.62,-204.04 359.62,-204.04 359.62,-209.96 359.62,-209.96 359.62,-212.92 356.67,-215.88 353.71,-215.88"/>
<text text-anchor="start" x="290.12" y="-203.32" font-family="Helvetica,sans-Serif" font-size="9.00">AddFeature.tsx</text>
</a>
</g>
</g>
<!-- src/Components/App.tsx&#45;&gt;src/Components/Features/AddFeature.tsx -->
<g id="edge15" class="edge">
<title>src/Components/App.tsx&#45;&gt;src/Components/Features/AddFeature.tsx</title>
<path fill="none" stroke="#000000" stroke-width="2" stroke-opacity="0.200000" d="M151.07,-216.52C182.27,-214.76 234.85,-211.79 273.05,-209.64"/>
<polygon fill="#000000" fill-opacity="0.200000" stroke="#000000" stroke-width="2" stroke-opacity="0.200000" points="273.05,-211.74 278.92,-209.31 272.81,-207.55 273.05,-211.74"/>
</g>
<!-- src/Components/Features/FeatureCreate.tsx -->
<g id="node20" class="node">
<title>src/Components/Features/FeatureCreate.tsx</title>
<g id="a_node20"><a xlink:href="src/Components/Features/FeatureCreate.tsx" xlink:title="FeatureCreate.tsx">
<path fill="#bbfeff" stroke="black" d="M359.33,-245.88C359.33,-245.88 282.42,-245.88 282.42,-245.88 279.46,-245.88 276.5,-242.92 276.5,-239.96 276.5,-239.96 276.5,-234.04 276.5,-234.04 276.5,-231.08 279.46,-228.12 282.42,-228.12 282.42,-228.12 359.33,-228.12 359.33,-228.12 362.29,-228.12 365.25,-231.08 365.25,-234.04 365.25,-234.04 365.25,-239.96 365.25,-239.96 365.25,-242.92 362.29,-245.88 359.33,-245.88"/>
<text text-anchor="start" x="284.5" y="-233.32" font-family="Helvetica,sans-Serif" font-size="9.00">FeatureCreate.tsx</text>
</a>
</g>
</g>
<!-- src/Components/App.tsx&#45;&gt;src/Components/Features/FeatureCreate.tsx -->
<g id="edge16" class="edge">
<title>src/Components/App.tsx&#45;&gt;src/Components/Features/FeatureCreate.tsx</title>
<path fill="none" stroke="#000000" stroke-width="2" stroke-opacity="0.200000" d="M151.07,-220.56C180.73,-223.45 229.71,-228.22 267.29,-231.88"/>
<polygon fill="#000000" fill-opacity="0.200000" stroke="#000000" stroke-width="2" stroke-opacity="0.200000" points="266.9,-233.95 273.08,-232.44 267.31,-229.77 266.9,-233.95"/>
</g>
<!-- src/Components/Home.tsx -->
<g id="node21" class="node">
<title>src/Components/Home.tsx</title>
<g id="a_node21"><a xlink:href="src/Components/Home.tsx" xlink:title="Home.tsx">
<path fill="#bbfeff" stroke="black" d="M342.08,-327.88C342.08,-327.88 299.67,-327.88 299.67,-327.88 296.71,-327.88 293.75,-324.92 293.75,-321.96 293.75,-321.96 293.75,-316.04 293.75,-316.04 293.75,-313.08 296.71,-310.12 299.67,-310.12 299.67,-310.12 342.08,-310.12 342.08,-310.12 345.04,-310.12 348,-313.08 348,-316.04 348,-316.04 348,-321.96 348,-321.96 348,-324.92 345.04,-327.88 342.08,-327.88"/>
<text text-anchor="start" x="301.75" y="-315.32" font-family="Helvetica,sans-Serif" font-size="9.00">Home.tsx</text>
</a>
</g>
</g>
<!-- src/Components/App.tsx&#45;&gt;src/Components/Home.tsx -->
<g id="edge17" class="edge">
<title>src/Components/App.tsx&#45;&gt;src/Components/Home.tsx</title>
<path fill="none" stroke="#000000" stroke-width="2" stroke-opacity="0.200000" d="M150.28,-227.3C153.13,-228.25 155.99,-229.17 158.75,-230 202.73,-243.21 227.95,-221.17 259,-255 274.22,-271.58 251.9,-288.31 267,-305 271.7,-310.2 278.09,-313.56 284.8,-315.72"/>
<polygon fill="#000000" fill-opacity="0.200000" stroke="#000000" stroke-width="2" stroke-opacity="0.200000" points="284.1,-317.71 290.43,-317.12 285.12,-313.63 284.1,-317.71"/>
</g>
<!-- src/Components/Order/OrderCreate.tsx -->
<g id="node22" class="node">
<title>src/Components/Order/OrderCreate.tsx</title>
<g id="a_node22"><a xlink:href="src/Components/Order/OrderCreate.tsx" xlink:title="OrderCreate.tsx">
<path fill="#bbfeff" stroke="black" d="M243.21,-313.88C243.21,-313.88 174.54,-313.88 174.54,-313.88 171.58,-313.88 168.62,-310.92 168.62,-307.96 168.62,-307.96 168.62,-302.04 168.62,-302.04 168.62,-299.08 171.58,-296.12 174.54,-296.12 174.54,-296.12 243.21,-296.12 243.21,-296.12 246.17,-296.12 249.12,-299.08 249.12,-302.04 249.12,-302.04 249.12,-307.96 249.12,-307.96 249.12,-310.92 246.17,-313.88 243.21,-313.88"/>
<text text-anchor="start" x="176.62" y="-301.32" font-family="Helvetica,sans-Serif" font-size="9.00">OrderCreate.tsx</text>
</a>
</g>
</g>
<!-- src/Components/App.tsx&#45;&gt;src/Components/Order/OrderCreate.tsx -->
<g id="edge19" class="edge">
<title>src/Components/App.tsx&#45;&gt;src/Components/Order/OrderCreate.tsx</title>
<path fill="none" stroke="#000000" stroke-width="2" stroke-opacity="0.200000" d="M126.51,-226.94C129.97,-242.14 139.09,-273 158.75,-290 159.37,-290.54 160.01,-291.05 160.66,-291.55"/>
<polygon fill="#000000" fill-opacity="0.200000" stroke="#000000" stroke-width="2" stroke-opacity="0.200000" points="159.44,-293.26 165.65,-294.62 161.64,-289.69 159.44,-293.26"/>
</g>
<!-- src/Components/Order/OrderPaySite.tsx -->
<g id="node23" class="node">
<title>src/Components/Order/OrderPaySite.tsx</title>
<g id="a_node23"><a xlink:href="src/Components/Order/OrderPaySite.tsx" xlink:title="OrderPaySite.tsx">
<path fill="#bbfeff" stroke="black" d="M245.08,-283.88C245.08,-283.88 172.67,-283.88 172.67,-283.88 169.71,-283.88 166.75,-280.92 166.75,-277.96 166.75,-277.96 166.75,-272.04 166.75,-272.04 166.75,-269.08 169.71,-266.12 172.67,-266.12 172.67,-266.12 245.08,-266.12 245.08,-266.12 248.04,-266.12 251,-269.08 251,-272.04 251,-272.04 251,-277.96 251,-277.96 251,-280.92 248.04,-283.88 245.08,-283.88"/>
<text text-anchor="start" x="174.75" y="-271.32" font-family="Helvetica,sans-Serif" font-size="9.00">OrderPaySite.tsx</text>
</a>
</g>
</g>
<!-- src/Components/App.tsx&#45;&gt;src/Components/Order/OrderPaySite.tsx -->
<g id="edge20" class="edge">
<title>src/Components/App.tsx&#45;&gt;src/Components/Order/OrderPaySite.tsx</title>
<path fill="none" stroke="#000000" stroke-width="2" stroke-opacity="0.200000" d="M129.45,-227.21C134.36,-236.01 142.89,-249.26 158.92,-261.15"/>
<polygon fill="#000000" fill-opacity="0.200000" stroke="#000000" stroke-width="2" stroke-opacity="0.200000" points="157.62,-262.8 163.76,-264.44 159.98,-259.33 157.62,-262.8"/>
</g>
<!-- src/Components/Paper/PaperCreate.tsx -->
<g id="node24" class="node">
<title>src/Components/Paper/PaperCreate.tsx</title>
<g id="a_node24"><a xlink:href="src/Components/Paper/PaperCreate.tsx" xlink:title="PaperCreate.tsx">
<path fill="#bbfeff" stroke="black" d="M355.96,-419.88C355.96,-419.88 285.79,-419.88 285.79,-419.88 282.83,-419.88 279.88,-416.92 279.88,-413.96 279.88,-413.96 279.88,-408.04 279.88,-408.04 279.88,-405.08 282.83,-402.12 285.79,-402.12 285.79,-402.12 355.96,-402.12 355.96,-402.12 358.92,-402.12 361.88,-405.08 361.88,-408.04 361.88,-408.04 361.88,-413.96 361.88,-413.96 361.88,-416.92 358.92,-419.88 355.96,-419.88"/>
<text text-anchor="start" x="287.88" y="-407.32" font-family="Helvetica,sans-Serif" font-size="9.00">PaperCreate.tsx</text>
</a>
</g>
</g>
<!-- src/Components/App.tsx&#45;&gt;src/Components/Paper/PaperCreate.tsx -->
<g id="edge21" class="edge">
<title>src/Components/App.tsx&#45;&gt;src/Components/Paper/PaperCreate.tsx</title>
<path fill="none" stroke="#000000" stroke-width="2" stroke-opacity="0.200000" d="M124.99,-227C126.09,-260.8 131.85,-379.44 158.75,-403 190.6,-430.9 241.03,-428.64 276.98,-422.11"/>
<polygon fill="#000000" fill-opacity="0.200000" stroke="#000000" stroke-width="2" stroke-opacity="0.200000" points="277.34,-424.18 282.82,-420.95 276.53,-420.05 277.34,-424.18"/>
</g>
<!-- src/Components/Paper/PaperList.tsx -->
<g id="node25" class="node">
<title>src/Components/Paper/PaperList.tsx</title>
<g id="a_node25"><a xlink:href="src/Components/Paper/PaperList.tsx" xlink:title="PaperList.tsx">
<path fill="#bbfeff" stroke="black" d="M349.21,-449.88C349.21,-449.88 292.54,-449.88 292.54,-449.88 289.58,-449.88 286.62,-446.92 286.62,-443.96 286.62,-443.96 286.62,-438.04 286.62,-438.04 286.62,-435.08 289.58,-432.12 292.54,-432.12 292.54,-432.12 349.21,-432.12 349.21,-432.12 352.17,-432.12 355.12,-435.08 355.12,-438.04 355.12,-438.04 355.12,-443.96 355.12,-443.96 355.12,-446.92 352.17,-449.88 349.21,-449.88"/>
<text text-anchor="start" x="294.62" y="-437.32" font-family="Helvetica,sans-Serif" font-size="9.00">PaperList.tsx</text>
</a>
</g>
</g>
<!-- src/Components/App.tsx&#45;&gt;src/Components/Paper/PaperList.tsx -->
<g id="edge22" class="edge">
<title>src/Components/App.tsx&#45;&gt;src/Components/Paper/PaperList.tsx</title>
<path fill="none" stroke="#000000" stroke-width="2" stroke-opacity="0.200000" d="M124.92,-227.2C125.78,-262.94 130.79,-391.91 158.75,-419 189.69,-448.97 240.98,-451.03 277.38,-447.8"/>
<polygon fill="#000000" fill-opacity="0.200000" stroke="#000000" stroke-width="2" stroke-opacity="0.200000" points="277.52,-449.9 283.27,-447.19 277.09,-445.72 277.52,-449.9"/>
</g>
<!-- src/Components/ContactPage.tsx&#45;&gt;src/index.css -->
<g id="edge23" class="edge">
<title>src/Components/ContactPage.tsx&#45;&gt;src/index.css</title>
<path fill="none" stroke="#000000" stroke-width="2" stroke-opacity="0.200000" d="M250.66,-49.8C253.54,-48.67 256.35,-47.41 259,-46 263.17,-43.78 262.83,-41.22 267,-39 272.59,-36.03 278.86,-33.65 285.07,-31.77"/>
<polygon fill="#000000" fill-opacity="0.200000" stroke="#000000" stroke-width="2" stroke-opacity="0.200000" points="285.27,-33.89 290.51,-30.28 284.17,-29.83 285.27,-33.89"/>
</g>
<!-- src/Components/Customer/CustomerList.tsx&#45;&gt;src/Components/imports.ts -->
<g id="edge24" class="edge">
<title>src/Components/Customer/CustomerList.tsx&#45;&gt;src/Components/imports.ts</title>
<path fill="none" stroke="#000000" stroke-width="2" stroke-opacity="0.200000" d="M363.08,-83.81C367.42,-85.88 371.45,-88.55 374.75,-92 392.18,-110.19 403.05,-184.58 407.26,-219.17"/>
<polygon fill="#000000" fill-opacity="0.200000" stroke="#000000" stroke-width="2" stroke-opacity="0.200000" points="405.13,-219.06 407.92,-224.78 409.31,-218.58 405.13,-219.06"/>
</g>
<!-- src/Components/Features/AddFeature.tsx&#45;&gt;src/Components/imports.ts -->
<g id="edge26" class="edge">
<title>src/Components/Features/AddFeature.tsx&#45;&gt;src/Components/imports.ts</title>
<path fill="none" stroke="#000000" stroke-width="2" stroke-opacity="0.200000" d="M357.35,-216.36C363.21,-218.1 369.18,-220.01 374.75,-222 376.79,-222.73 378.89,-223.53 380.99,-224.35"/>
<polygon fill="#000000" fill-opacity="0.200000" stroke="#000000" stroke-width="2" stroke-opacity="0.200000" points="379.85,-226.16 386.2,-226.5 381.46,-222.27 379.85,-226.16"/>
</g>
<!-- src/Components/Features/FeatureCreate.tsx&#45;&gt;src/Components/imports.ts -->
<g id="edge27" class="edge">
<title>src/Components/Features/FeatureCreate.tsx&#45;&gt;src/Components/imports.ts</title>
<path fill="none" stroke="#000000" stroke-width="2" stroke-opacity="0.200000" d="M365.56,-237C368.28,-237 371,-237 373.68,-237"/>
<polygon fill="#000000" fill-opacity="0.200000" stroke="#000000" stroke-width="2" stroke-opacity="0.200000" points="373.53,-239.1 379.53,-237 373.53,-234.9 373.53,-239.1"/>
</g>
<!-- src/Components/Home.tsx&#45;&gt;src/Components/imports.ts -->
<g id="edge29" class="edge">
<title>src/Components/Home.tsx&#45;&gt;src/Components/imports.ts</title>
<path fill="none" stroke="#000000" stroke-width="2" stroke-opacity="0.200000" d="M348.35,-316.45C357.49,-314.48 367.29,-311.03 374.75,-305 390.6,-292.18 399.87,-270.17 404.74,-254.67"/>
<polygon fill="#000000" fill-opacity="0.200000" stroke="#000000" stroke-width="2" stroke-opacity="0.200000" points="406.75,-255.26 406.38,-248.91 402.71,-254.1 406.75,-255.26"/>
</g>
<!-- src/Components/Order/OrderCreate.tsx&#45;&gt;src/Components/imports.ts -->
<g id="edge30" class="edge">
<title>src/Components/Order/OrderCreate.tsx&#45;&gt;src/Components/imports.ts</title>
<path fill="none" stroke="#000000" stroke-width="2" stroke-opacity="0.200000" d="M249.33,-313.23C252.87,-315.05 256.17,-317.28 259,-320 266.8,-327.5 258.18,-336.73 267,-343 286.52,-356.87 355.38,-357.07 374.75,-343 402.55,-322.81 408.39,-279.64 409.35,-255.08"/>
<polygon fill="#000000" fill-opacity="0.200000" stroke="#000000" stroke-width="2" stroke-opacity="0.200000" points="411.45,-255.16 409.46,-249.12 407.25,-255.08 411.45,-255.16"/>
</g>
<!-- src/Components/Order/OrderPaySite.tsx&#45;&gt;src/Components/imports.ts -->
<g id="edge31" class="edge">
<title>src/Components/Order/OrderPaySite.tsx&#45;&gt;src/Components/imports.ts</title>
<path fill="none" stroke="#000000" stroke-width="2" stroke-opacity="0.200000" d="M251.17,-283.6C254.08,-285.36 256.75,-287.47 259,-290 272.21,-304.85 251.74,-321.26 267,-334 285.38,-349.34 355.19,-347.81 374.75,-334 400.06,-316.14 406.92,-277.99 408.7,-255.22"/>
<polygon fill="#000000" fill-opacity="0.200000" stroke="#000000" stroke-width="2" stroke-opacity="0.200000" points="410.79,-255.37 409.03,-249.26 406.6,-255.13 410.79,-255.37"/>
</g>
<!-- src/Components/Paper/PaperCreate.tsx&#45;&gt;src/Components/imports.ts -->
<g id="edge32" class="edge">
<title>src/Components/Paper/PaperCreate.tsx&#45;&gt;src/Components/imports.ts</title>
<path fill="none" stroke="#000000" stroke-width="2" stroke-opacity="0.200000" d="M362.36,-404.62C366.99,-402.49 371.29,-399.69 374.75,-396 393.83,-375.68 404,-292.19 407.65,-255.01"/>
<polygon fill="#000000" fill-opacity="0.200000" stroke="#000000" stroke-width="2" stroke-opacity="0.200000" points="409.72,-255.41 408.19,-249.24 405.54,-255.02 409.72,-255.41"/>
</g>
<!-- src/Components/Paper/PaperList.tsx&#45;&gt;src/Components/imports.ts -->
<g id="edge33" class="edge">
<title>src/Components/Paper/PaperList.tsx&#45;&gt;src/Components/imports.ts</title>
<path fill="none" stroke="#000000" stroke-width="2" stroke-opacity="0.200000" d="M355.48,-437.41C362.71,-435.14 369.68,-431.58 374.75,-426 397.49,-400.97 405.85,-297.04 408.34,-254.88"/>
<polygon fill="#000000" fill-opacity="0.200000" stroke="#000000" stroke-width="2" stroke-opacity="0.200000" points="410.43,-255.14 408.67,-249.03 406.24,-254.91 410.43,-255.14"/>
</g>
<!-- src/Components/Features/FeatureList.tsx -->
<g id="node26" class="node">
<title>src/Components/Features/FeatureList.tsx</title>
<g id="a_node26"><a xlink:href="src/Components/Features/FeatureList.tsx" xlink:title="no&#45;orphans">
<path fill="#ccffcc" stroke="orange" d="M352.58,-275.88C352.58,-275.88 289.17,-275.88 289.17,-275.88 286.21,-275.88 283.25,-272.92 283.25,-269.96 283.25,-269.96 283.25,-264.04 283.25,-264.04 283.25,-261.08 286.21,-258.12 289.17,-258.12 289.17,-258.12 352.58,-258.12 352.58,-258.12 355.54,-258.12 358.5,-261.08 358.5,-264.04 358.5,-264.04 358.5,-269.96 358.5,-269.96 358.5,-272.92 355.54,-275.88 352.58,-275.88"/>
<text text-anchor="start" x="291.25" y="-263.32" font-family="Helvetica,sans-Serif" font-size="9.00" fill="orange">FeatureList.tsx</text>
</a>
</g>
</g>
<!-- src/Components/Order/OrderList.tsx -->
<g id="node27" class="node">
<title>src/Components/Order/OrderList.tsx</title>
<g id="a_node27"><a xlink:href="src/Components/Order/OrderList.tsx" xlink:title="no&#45;orphans">
<path fill="#ccffcc" stroke="orange" d="M236.46,-343.88C236.46,-343.88 181.29,-343.88 181.29,-343.88 178.33,-343.88 175.38,-340.92 175.38,-337.96 175.38,-337.96 175.38,-332.04 175.38,-332.04 175.38,-329.08 178.33,-326.12 181.29,-326.12 181.29,-326.12 236.46,-326.12 236.46,-326.12 239.42,-326.12 242.38,-329.08 242.38,-332.04 242.38,-332.04 242.38,-337.96 242.38,-337.96 242.38,-340.92 239.42,-343.88 236.46,-343.88"/>
<text text-anchor="start" x="183.38" y="-331.32" font-family="Helvetica,sans-Serif" font-size="9.00" fill="orange">OrderList.tsx</text>
</a>
</g>
</g>
<!-- src/Components/Order/OrderUpdate.tsx -->
<g id="node28" class="node">
<title>src/Components/Order/OrderUpdate.tsx</title>
<g id="a_node28"><a xlink:href="src/Components/Order/OrderUpdate.tsx" xlink:title="no&#45;orphans">
<path fill="#ccffcc" stroke="orange" d="M244.33,-373.88C244.33,-373.88 173.42,-373.88 173.42,-373.88 170.46,-373.88 167.5,-370.92 167.5,-367.96 167.5,-367.96 167.5,-362.04 167.5,-362.04 167.5,-359.08 170.46,-356.12 173.42,-356.12 173.42,-356.12 244.33,-356.12 244.33,-356.12 247.29,-356.12 250.25,-359.08 250.25,-362.04 250.25,-362.04 250.25,-367.96 250.25,-367.96 250.25,-370.92 247.29,-373.88 244.33,-373.88"/>
<text text-anchor="start" x="175.5" y="-361.32" font-family="Helvetica,sans-Serif" font-size="9.00" fill="orange">OrderUpdate.tsx</text>
</a>
</g>
</g>
<!-- src/Components/Paper/PaperDelete.tsx -->
<g id="node29" class="node">
<title>src/Components/Paper/PaperDelete.tsx</title>
<g id="a_node29"><a xlink:href="src/Components/Paper/PaperDelete.tsx" xlink:title="no&#45;orphans">
<path fill="#ccffcc" stroke="orange" d="M355.58,-479.88C355.58,-479.88 286.17,-479.88 286.17,-479.88 283.21,-479.88 280.25,-476.92 280.25,-473.96 280.25,-473.96 280.25,-468.04 280.25,-468.04 280.25,-465.08 283.21,-462.12 286.17,-462.12 286.17,-462.12 355.58,-462.12 355.58,-462.12 358.54,-462.12 361.5,-465.08 361.5,-468.04 361.5,-468.04 361.5,-473.96 361.5,-473.96 361.5,-476.92 358.54,-479.88 355.58,-479.88"/>
<text text-anchor="start" x="288.25" y="-467.32" font-family="Helvetica,sans-Serif" font-size="9.00" fill="orange">PaperDelete.tsx</text>
</a>
</g>
</g>
<!-- src/Helpers/Constants/Path.tsx -->
<g id="node31" class="node">
<title>src/Helpers/Constants/Path.tsx</title>
<g id="a_node31"><a xlink:href="src/Helpers/Constants/Path.tsx" xlink:title="no&#45;orphans">
<path fill="#ccffcc" stroke="orange" d="M792.21,-335.88C792.21,-335.88 750.04,-335.88 750.04,-335.88 747.08,-335.88 744.12,-332.92 744.12,-329.96 744.12,-329.96 744.12,-324.04 744.12,-324.04 744.12,-321.08 747.08,-318.12 750.04,-318.12 750.04,-318.12 792.21,-318.12 792.21,-318.12 795.17,-318.12 798.12,-321.08 798.12,-324.04 798.12,-324.04 798.12,-329.96 798.12,-329.96 798.12,-332.92 795.17,-335.88 792.21,-335.88"/>
<text text-anchor="start" x="755" y="-323.32" font-family="Helvetica,sans-Serif" font-size="9.00" fill="orange">Path.tsx</text>
</a>
</g>
</g>
<!-- src/Helpers/imports.ts -->
<g id="node33" class="node">
<title>src/Helpers/imports.ts</title>
<g id="a_node33"><a xlink:href="src/Helpers/imports.ts" xlink:title="imports.ts">
<path fill="#ddfeff" stroke="black" d="M695.33,-327.88C695.33,-327.88 652.17,-327.88 652.17,-327.88 649.21,-327.88 646.25,-324.92 646.25,-321.96 646.25,-321.96 646.25,-316.04 646.25,-316.04 646.25,-313.08 649.21,-310.12 652.17,-310.12 652.17,-310.12 695.33,-310.12 695.33,-310.12 698.29,-310.12 701.25,-313.08 701.25,-316.04 701.25,-316.04 701.25,-321.96 701.25,-321.96 701.25,-324.92 698.29,-327.88 695.33,-327.88"/>
<text text-anchor="start" x="654.25" y="-315.32" font-family="Helvetica,sans-Serif" font-size="9.00">imports.ts</text>
</a>
</g>
</g>
<!-- src/Helpers/imports.ts&#45;&gt;src/Models/index.ts -->
<g id="edge39" class="edge">
<title>src/Helpers/imports.ts&#45;&gt;src/Models/index.ts</title>
<path fill="none" stroke="#000000" stroke-width="2" stroke-opacity="0.200000" d="M701.63,-309.97C710.36,-306.5 719.88,-302.12 728,-297 738.56,-290.34 748.99,-280.96 756.83,-273.18"/>
<polygon fill="#000000" fill-opacity="0.200000" stroke="#000000" stroke-width="2" stroke-opacity="0.200000" points="762.61,-270.3 756.91,-273.1 759.61,-267.35 762.61,-270.3"/>
</g>
<!-- src/Hooks/imports.ts -->
<g id="node34" class="node">
<title>src/Hooks/imports.ts</title>
<g id="a_node34"><a xlink:href="src/Hooks/imports.ts" xlink:title="imports.ts">
<path fill="#ddfeff" stroke="black" d="M510.83,-292.88C510.83,-292.88 467.67,-292.88 467.67,-292.88 464.71,-292.88 461.75,-289.92 461.75,-286.96 461.75,-286.96 461.75,-281.04 461.75,-281.04 461.75,-278.08 464.71,-275.12 467.67,-275.12 467.67,-275.12 510.83,-275.12 510.83,-275.12 513.79,-275.12 516.75,-278.08 516.75,-281.04 516.75,-281.04 516.75,-286.96 516.75,-286.96 516.75,-289.92 513.79,-292.88 510.83,-292.88"/>
<text text-anchor="start" x="469.75" y="-280.32" font-family="Helvetica,sans-Serif" font-size="9.00">imports.ts</text>
</a>
</g>
</g>
<!-- src/Hooks/imports.ts&#45;&gt;src/Helpers/index.ts -->
<g id="edge42" class="edge">
<title>src/Hooks/imports.ts&#45;&gt;src/Helpers/index.ts</title>
<path fill="none" stroke="#000000" stroke-width="2" stroke-opacity="0.200000" d="M514.97,-293.25C542.39,-303.46 587.98,-320.25 627.5,-334 631.41,-335.36 635.51,-336.76 639.59,-338.13"/>
<polygon fill="#000000" fill-opacity="0.200000" stroke="#000000" stroke-width="2" stroke-opacity="0.200000" points="644.77,-342.08 639.75,-338.18 646.1,-338.1 644.77,-342.08"/>
</g>
<!-- src/Hooks/imports.ts&#45;&gt;src/Models/index.ts -->
<g id="edge43" class="edge">
<title>src/Hooks/imports.ts&#45;&gt;src/Models/index.ts</title>
<path fill="none" stroke="#000000" stroke-width="2" stroke-opacity="0.200000" d="M516.93,-286.34C570.48,-290.72 689.27,-298.7 728,-287 737.65,-284.09 747.11,-278.16 754.61,-272.51"/>
<polygon fill="#000000" fill-opacity="0.200000" stroke="#000000" stroke-width="2" stroke-opacity="0.200000" points="760.46,-270.56 754.45,-272.63 757.86,-267.26 760.46,-270.56"/>
</g>
<!-- src/Hooks/imports.ts&#45;&gt;src/Atoms/index.ts -->
<g id="edge41" class="edge">
<title>src/Hooks/imports.ts&#45;&gt;src/Atoms/index.ts</title>
<path fill="none" stroke="#000000" stroke-width="2" stroke-opacity="0.200000" d="M516.93,-275.58C519.87,-273.78 522.58,-271.61 524.75,-269 534.94,-256.72 522.07,-245.86 532.75,-234 535.86,-230.54 539.81,-227.88 544.04,-225.84"/>
<polygon fill="#000000" fill-opacity="0.200000" stroke="#000000" stroke-width="2" stroke-opacity="0.200000" points="550.27,-225.57 543.92,-225.89 548.69,-221.68 550.27,-225.57"/>
</g>
<!-- src/main.tsx -->
<g id="node36" class="node">
<title>src/main.tsx</title>
<g id="a_node36"><a xlink:href="src/main.tsx" xlink:title="main.tsx">
<path fill="#bbfeff" stroke="black" d="M69.46,-124.88C69.46,-124.88 27.29,-124.88 27.29,-124.88 24.33,-124.88 21.38,-121.92 21.38,-118.96 21.38,-118.96 21.38,-113.04 21.38,-113.04 21.38,-110.08 24.33,-107.12 27.29,-107.12 27.29,-107.12 69.46,-107.12 69.46,-107.12 72.42,-107.12 75.38,-110.08 75.38,-113.04 75.38,-113.04 75.38,-118.96 75.38,-118.96 75.38,-121.92 72.42,-124.88 69.46,-124.88"/>
<text text-anchor="start" x="31.5" y="-112.33" font-family="Helvetica,sans-Serif" font-size="9.00">main.tsx</text>
</a>
</g>
</g>
<!-- src/main.tsx&#45;&gt;src/index.css -->
<g id="edge46" class="edge">
<title>src/main.tsx&#45;&gt;src/index.css</title>
<path fill="none" stroke="#000000" stroke-width="2" stroke-opacity="0.200000" d="M51.06,-106.66C54.64,-89.83 64.75,-54.7 88.75,-39 148.32,-0.03 236.07,-8.27 284.51,-17.06"/>
<polygon fill="#000000" fill-opacity="0.200000" stroke="#000000" stroke-width="2" stroke-opacity="0.200000" points="284.11,-19.12 290.4,-18.19 284.9,-15 284.11,-19.12"/>
</g>
<!-- src/main.tsx&#45;&gt;src/Components/App.tsx -->
<g id="edge45" class="edge">
<title>src/main.tsx&#45;&gt;src/Components/App.tsx</title>
<path fill="none" stroke="#000000" stroke-width="2" stroke-opacity="0.200000" d="M51,-125.16C54.63,-142.95 64.99,-182.42 88.75,-205 88.89,-205.14 89.04,-205.27 89.18,-205.4"/>
<polygon fill="#000000" fill-opacity="0.200000" stroke="#000000" stroke-width="2" stroke-opacity="0.200000" points="87.97,-207.11 94.09,-208.8 90.35,-203.66 87.97,-207.11"/>
</g>
<!-- src/vite&#45;env.d.ts -->
<g id="node37" class="node">
<title>src/vite&#45;env.d.ts</title>
<g id="a_node37"><a xlink:href="src/vite-env.d.ts" xlink:title="vite&#45;env.d.ts">
<path fill="#ccffcc" stroke="black" d="M74.83,-342.88C74.83,-342.88 21.92,-342.88 21.92,-342.88 18.96,-342.88 16,-339.92 16,-336.96 16,-336.96 16,-331.04 16,-331.04 16,-328.08 18.96,-325.12 21.92,-325.12 21.92,-325.12 74.83,-325.12 74.83,-325.12 77.79,-325.12 80.75,-328.08 80.75,-331.04 80.75,-331.04 80.75,-336.96 80.75,-336.96 80.75,-339.92 77.79,-342.88 74.83,-342.88"/>
<text text-anchor="start" x="24" y="-330.32" font-family="Helvetica,sans-Serif" font-size="9.00">vite&#45;env.d.ts</text>
</a>
</g>
</g>
</g>
</svg>
